<?xml version="1.0" encoding="iso-8859-1" standalone="no"?>
<?xml-stylesheet href="erdos-hajnal-DMTCS.css" type="text/css"?>
<svg xmlns="http://www.w3.org/2000/svg" xmlns:xlink="http://www.w3.org/1999/xlink" width="68.57144pt" height="69.32663pt" viewBox="1.2802 0.24722 68.57144 69.32663 ">
<g transform="translate(0,69.57385 ) scale(1,-1) translate(0,-0.24722 )">
<g>
 <g stroke="rgb(0.0%,0.0%,0.0%)">
 <g fill="rgb(0.0%,0.0%,0.0%)">
 <g stroke-width="0.4pt">
 <g>
 <g>
 <g>
 <g transform="matrix(1.0,0.0,0.0,1.0,4.61317,47.57008)">
 <g fill="rgb(0.0%,0.0%,0.0%)">
 <text style="stroke:none" transform="scale(1,-1) translate(2.5,0)" text-anchor="middle"  font-size="10">
<tspan font-family="cmsy" font-size="10">&#x2219;</tspan></text>
</g>
 </g>
 </g>
 </g>
 <g>
 <g>
 <g transform="matrix(1.0,0.0,0.0,1.0,7.11317,46.25932)">
 <g fill="rgb(0.0%,0.0%,0.0%)">
 <text style="stroke:none" transform="scale(1,-1) translate(0.0,0)" text-anchor="middle"  font-size="10">
</text>
</g>
 </g>
 </g>
 </g>
 <g>
 <g>
 <g transform="matrix(1.0,0.0,0.0,1.0,11.72636,54.68327)">
 <g fill="rgb(0.0%,0.0%,0.0%)">
 <text style="stroke:none" transform="scale(1,-1) translate(2.5,0)" text-anchor="middle"  font-size="10">
<tspan font-family="cmsy" font-size="10">&#x2219;</tspan></text>
</g>
 </g>
 </g>
 </g>
 <g>
 <g>
 <g transform="matrix(1.0,0.0,0.0,1.0,14.22636,53.37251)">
 <g fill="rgb(0.0%,0.0%,0.0%)">
 <text style="stroke:none" transform="scale(1,-1) translate(0.0,0)" text-anchor="middle"  font-size="10">
</text>
</g>
 </g>
 </g>
 </g>
 <g>
 <g>
 <g transform="matrix(1.0,0.0,0.0,1.0,18.83955,61.79645)">
 <g fill="rgb(0.0%,0.0%,0.0%)">
 <text style="stroke:none" transform="scale(1,-1) translate(2.5,0)" text-anchor="middle"  font-size="10">
<tspan font-family="cmsy" font-size="10">&#x2219;</tspan></text>
</g>
 </g>
 </g>
 </g>
 <g>
 <g>
 <g transform="matrix(1.0,0.0,0.0,1.0,21.33955,60.48569)">
 <g fill="rgb(0.0%,0.0%,0.0%)">
 <text style="stroke:none" transform="scale(1,-1) translate(0.0,0)" text-anchor="middle"  font-size="10">
</text>
</g>
 </g>
 </g>
 </g>
 <g>
 <g>
 <g transform="matrix(1.0,0.0,0.0,1.0,25.95274,26.23053)">
 <g fill="rgb(0.0%,0.0%,0.0%)">
 <text style="stroke:none" transform="scale(1,-1) translate(2.5,0)" text-anchor="middle"  font-size="10">
<tspan font-family="cmsy" font-size="10">&#x2219;</tspan></text>
</g>
 </g>
 </g>
 </g>
 <g>
 <g>
 <g transform="matrix(1.0,0.0,0.0,1.0,28.45274,24.91977)">
 <g fill="rgb(0.0%,0.0%,0.0%)">
 <text style="stroke:none" transform="scale(1,-1) translate(0.0,0)" text-anchor="middle"  font-size="10">
</text>
</g>
 </g>
 </g>
 </g>
 <g>
 <g>
 <g transform="matrix(1.0,0.0,0.0,1.0,33.06592,33.3437)">
 <g fill="rgb(0.0%,0.0%,0.0%)">
 <text style="stroke:none" transform="scale(1,-1) translate(2.5,0)" text-anchor="middle"  font-size="10">
<tspan font-family="cmsy" font-size="10">&#x2219;</tspan></text>
</g>
 </g>
 </g>
 </g>
 <g>
 <g>
 <g transform="matrix(1.0,0.0,0.0,1.0,35.56592,32.03294)">
 <g fill="rgb(0.0%,0.0%,0.0%)">
 <text style="stroke:none" transform="scale(1,-1) translate(0.0,0)" text-anchor="middle"  font-size="10">
</text>
</g>
 </g>
 </g>
 </g>
 <g>
 <g>
 <g transform="matrix(1.0,0.0,0.0,1.0,40.17911,40.4569)">
 <g fill="rgb(0.0%,0.0%,0.0%)">
 <text style="stroke:none" transform="scale(1,-1) translate(2.5,0)" text-anchor="middle"  font-size="10">
<tspan font-family="cmsy" font-size="10">&#x2219;</tspan></text>
</g>
 </g>
 </g>
 </g>
 <g>
 <g>
 <g transform="matrix(1.0,0.0,0.0,1.0,42.67911,39.14613)">
 <g fill="rgb(0.0%,0.0%,0.0%)">
 <text style="stroke:none" transform="scale(1,-1) translate(0.0,0)" text-anchor="middle"  font-size="10">
</text>
</g>
 </g>
 </g>
 </g>
 <g>
 <g>
 <g transform="matrix(1.0,0.0,0.0,1.0,47.2923,4.89096)">
 <g fill="rgb(0.0%,0.0%,0.0%)">
 <text style="stroke:none" transform="scale(1,-1) translate(2.5,0)" text-anchor="middle"  font-size="10">
<tspan font-family="cmsy" font-size="10">&#x2219;</tspan></text>
</g>
 </g>
 </g>
 </g>
 <g>
 <g>
 <g transform="matrix(1.0,0.0,0.0,1.0,49.7923,3.5802)">
 <g fill="rgb(0.0%,0.0%,0.0%)">
 <text style="stroke:none" transform="scale(1,-1) translate(0.0,0)" text-anchor="middle"  font-size="10">
</text>
</g>
 </g>
 </g>
 </g>
 <g>
 <g>
 <g transform="matrix(1.0,0.0,0.0,1.0,54.40549,12.00415)">
 <g fill="rgb(0.0%,0.0%,0.0%)">
 <text style="stroke:none" transform="scale(1,-1) translate(2.5,0)" text-anchor="middle"  font-size="10">
<tspan font-family="cmsy" font-size="10">&#x2219;</tspan></text>
</g>
 </g>
 </g>
 </g>
 <g>
 <g>
 <g transform="matrix(1.0,0.0,0.0,1.0,56.90549,10.69339)">
 <g fill="rgb(0.0%,0.0%,0.0%)">
 <text style="stroke:none" transform="scale(1,-1) translate(0.0,0)" text-anchor="middle"  font-size="10">
</text>
</g>
 </g>
 </g>
 </g>
 <g>
 <g>
 <g transform="matrix(1.0,0.0,0.0,1.0,61.51866,19.11734)">
 <g fill="rgb(0.0%,0.0%,0.0%)">
 <text style="stroke:none" transform="scale(1,-1) translate(2.5,0)" text-anchor="middle"  font-size="10">
<tspan font-family="cmsy" font-size="10">&#x2219;</tspan></text>
</g>
 </g>
 </g>
 </g>
 <g>
 <g>
 <g transform="matrix(1.0,0.0,0.0,1.0,64.01866,17.80658)">
 <g fill="rgb(0.0%,0.0%,0.0%)">
 <text style="stroke:none" transform="scale(1,-1) translate(0.0,0)" text-anchor="middle"  font-size="10">
</text>
</g>
 </g>
 </g>
 </g>
 <g>
 <g stroke-width="0.8pt">
 <g stroke-linecap="round">
 <path d=" M  3.55658 46.2357 M  3.55658 46.2357 L  3.55658 67.57526 L  24.89615 67.57526 L  24.89615 46.2357 Z M  24.89615 67.57526  " style="fill:none"/>
 </g>
 </g>
 </g>
 <g>
 <g stroke-width="0.8pt">
 <g stroke-linecap="round">
 <path d=" M  24.89615 24.89615 M  24.89615 24.89615 L  24.89615 46.2357 L  46.2357 46.2357 L  46.2357 24.89615 Z M  46.2357 46.2357  " style="fill:none"/>
 </g>
 </g>
 </g>
 <g>
 <g stroke-width="0.8pt">
 <g stroke-linecap="round">
 <path d=" M  46.2357 3.55658 M  46.2357 3.55658 L  46.2357 24.89615 L  67.57526 24.89615 L  67.57526 3.55658 Z M  67.57526 24.89615  " style="fill:none"/>
 </g>
 </g>
 </g>
 </g>
 </g>
 </g>
 </g>
 </g>
             </g>
</svg>
